PathFileType	4	(X/Y/Z)	/Users/niels/Desktop/University/Third Semester/Perception and Action/Exam/Gymnastics Motion Tracking/Code for Gym Tracking/Scripts/Analyzed Data/Start Salto/st_salto_good_id17_1_Sports2D/st_salto_good_id17_1_Sports2D_px_person00.trc
DataRate	CameraRate	NumFrames	NumMarkers	Units	OrigDataRate	OrigDataStartFrame	OrigNumFrames
29.75	29.75	11	22	m	29.75	45	120
Frame#	Time	Hip			RHip			RKnee			RAnkle			RBigToe			RSmallToe			RHeel			LHip			LKnee			LAnkle			LBigToe			LSmallToe			LHeel			Neck			Head			Nose			RShoulder			RElbow			RWrist			LShoulder			LElbow			LWrist		
		X1	Y1	Z1	X2	Y2	Z2	X3	Y3	Z3	X4	Y4	Z4	X5	Y5	Z5	X6	Y6	Z6	X7	Y7	Z7	X8	Y8	Z8	X9	Y9	Z9	X10	Y10	Z10	X11	Y11	Z11	X12	Y12	Z12	X13	Y13	Z13	X14	Y14	Z14	X15	Y15	Z15	X16	Y16	Z16	X17	Y17	Z17	X18	Y18	Z18	X19	Y19	Z19	X20	Y20	Z20	X21	Y21	Z21	X22	Y22	Z22
45	1.5126050420168067	0.8414867103591608	-0.35101051397501454	0.0	0.8369857708625618	-0.3586008181630607	0.0	0.7745862831695625	-0.4647705559508519	0.0	0.681761031977169	-0.5372282607371287	0.0	0.6588483188457057	-0.5830625554148827	0.0	0.6548427556539952	-0.5779514190391236	0.0	0.6671958330739772	-0.5451314227358495	0.0	0.8386515319148315	-0.35364425673567634	0.0	0.7727513778967424	-0.4592258800932398	0.0	0.685360048502411	-0.5291845121531942	0.0	0.6697521608541657	-0.5666387760384657	0.0	0.6732155664625308	-0.5658555510176397	0.0	0.6700502510691062	-0.5396502771034942	0.0	1.0084360522226865	-0.38251143816024596	0.0	1.0709765626403573	-0.4346285521747917	0.0	1.0259855797511666	-0.43168767521961465	0.0	0.9947798294892252	-0.3845613966484341	0.0	0.9661006982765362	-0.46634390386248176	0.0	0.9672042541504126	-0.5414703636151319	0.0	0.9997488705606289	-0.3714218886343434	0.0	0.9667692202099193	-0.46184926066117743	0.0	0.9906817635750893	-0.49052366748960635	0.0
46	1.5462184873949578	0.8556892237320991	-0.3418654911132816	0.0	0.8509940236419105	-0.34985336978386716	0.0	0.7818753805201121	-0.4531092696473336	0.0	0.6872111186271688	-0.5219862969273439	0.0	0.6634096812732764	-0.5661996522403272	0.0	0.6592082872668148	-0.5629516693039951	0.0	0.6723464893389435	-0.5304499667435053	0.0	0.8524639495764627	-0.3448843657079374	0.0	0.7805346107710665	-0.4477424894630203	0.0	0.6913940935528954	-0.5132621409433126	0.0	0.6783597977775091	-0.5470408702074685	0.0	0.6813035654702729	-0.5477680866703035	0.0	0.6763690416741511	-0.5242956175975895	0.0	1.0199723083325858	-0.38650178377034583	0.0	1.0788144251942864	-0.4418685355749689	0.0	1.0349383174197486	-0.43719849321184084	0.0	1.0058080571254273	-0.3867078479742238	0.0	0.9648894130035887	-0.4629513802546599	0.0	0.9545057381677037	-0.5365249202474894	0.0	1.0115913507842191	-0.3737482573814547	0.0	0.9660438012843812	-0.45834016559467405	0.0	0.9826333594606554	-0.4806867583680893	0.0
47	1.5798319327731092	0.8699555289404645	-0.33317392977615423	0.0	0.865197697126618	-0.3412804191750382	0.0	0.7896157825594519	-0.4415863682596937	0.0	0.6932666737558173	-0.5060287574747719	0.0	0.6681443887697259	-0.5497201201428513	0.0	0.6635326218811775	-0.5479142693224311	0.0	0.678266747745404	-0.5146131232106881	0.0	0.8663373868156414	-0.3369548323473255	0.0	0.7889547573296324	-0.4370171615970332	0.0	0.698016855657668	-0.4974187709406585	0.0	0.6866886188933351	-0.5296492634233996	0.0	0.68889841029564	-0.5320285521604711	0.0	0.6832154388775433	-0.5086394994487073	0.0	1.0307064697352852	-0.39153188299438857	0.0	1.0855382817737422	-0.4490781689071828	0.0	1.04282140751593	-0.44245211062568574	0.0	1.016675241855621	-0.38874766705522423	0.0	0.9635254176520968	-0.45920275618134665	0.0	0.9416839921001535	-0.5292173360668833	0.0	1.021936528260154	-0.37725504200123205	0.0	0.9648237268762834	-0.454371692073226	0.0	0.967778642558121	-0.4786918304329116	0.0
48	1.6134453781512605	0.8842992721907599	-0.32524251789792713	0.0	0.8796579689367624	-0.332994357863633	0.0	0.7978990784909983	-0.4300477047803696	0.0	0.6999804568571781	-0.4893494204507472	0.0	0.6732619671382183	-0.5332191107892893	0.0	0.6681801953414753	-0.532251281367392	0.0	0.6850016553573286	-0.49773603031348834	0.0	0.8804156205741418	-0.3298946394723455	0.0	0.797957805228152	-0.4267697069897573	0.0	0.7053080304277823	-0.48168836014970856	0.0	0.6945124358964991	-0.5143186716459791	0.0	0.6959197947155309	-0.5183287818318858	0.0	0.6909868898716562	-0.49284103853393285	0.0	1.040761023686744	-0.39754076403761435	0.0	1.0908168123137487	-0.45692069445545236	0.0	1.0491627546000302	-0.44761658303804064	0.0	1.0272785631474513	-0.3909526127572049	0.0	0.9624138293383208	-0.45537695929662164	0.0	0.9292582698282953	-0.5202833927842965	0.0	1.0310713260348414	-0.38199589372953136	0.0	0.9633925582295276	-0.45040010605030006	0.0	0.9493678732794392	-0.48185758330421596	0.0
49	1.6470588235294117	0.8990879797894806	-0.31824322071421457	0.0	0.8947073567041164	-0.32519320470512236	0.0	0.8069203265081489	-0.41818220116963445	0.0	0.707432365742506	-0.4717682972151687	0.0	0.6792831587529925	-0.51582731542173	0.0	0.6737355951906466	-0.5150376065752442	0.0	0.6926615158080863	-0.4797492010068975	0.0	0.8951384095411756	-0.3234975553047541	0.0	0.8075640529598598	-0.41644098259701207	0.0	0.7134922369703384	-0.46555858583955756	0.0	0.7023461250216139	-0.4998822233930706	0.0	0.7030692937937781	-0.5051587247467175	0.0	0.700277383503856	-0.4765268863164999	0.0	1.0504377877143543	-0.4044679712413507	0.0	1.0942376181129068	-0.4660652816885225	0.0	1.053980337707557	-0.4530217890638266	0.0	1.0375261818604455	-0.3938748570570925	0.0	0.9620738151265612	-0.4513976241504777	0.0	0.9175226578216266	-0.5101609082140593	0.0	1.0398453296801278	-0.38793689165816836	0.0	0.9625942450375042	-0.4464622024104931	0.0	0.9331743475751233	-0.48465652417789284	0.0
50	1.680672268907563	0.9146701419958434	-0.31215691034378995	0.0	0.9105133197165423	-0.31809648126461604	0.0	0.8168405928708571	-0.40586468494302763	0.0	0.7156145086844223	-0.4532976895833419	0.0	0.6864962433620785	-0.4970003751135874	0.0	0.6804951353760639	-0.4957230463024463	0.0	0.7012492486878062	-0.4607012160261265	0.0	0.9108208742008714	-0.3175273534541089	0.0	0.8178938155832495	-0.4056557326397592	0.0	0.7227047337308259	-0.4485585036237514	0.0	0.7107928132571122	-0.4850834071499601	0.0	0.7112107999637283	-0.4909196992878103	0.0	0.7113614777808701	-0.45922979052577906	0.0	1.0597701658532321	-0.41209945357721245	0.0	1.0956679258672442	-0.4764871111755373	0.0	1.057692261110012	-0.4588808921270784	0.0	1.0472063748684861	-0.3978947533562231	0.0	0.9630042466896073	-0.44705037131081765	0.0	0.9068722679316078	-0.4988216323986618	0.0	1.0488168021944373	-0.39483067996032456	0.0	0.9634760011914583	-0.4423925205790948	0.0	0.9239294638862705	-0.48379348256578847	0.0
51	1.7142857142857142	0.9309056501477684	-0.30677485860498144	0.0	0.9267533108325307	-0.31184013790048315	0.0	0.827582604718861	-0.39341550347568444	0.0	0.7243715299779109	-0.4344461376215539	0.0	0.6947222899407333	-0.47709618518494484	0.0	0.6883122030704443	-0.47471003185863825	0.0	0.7105463344050323	-0.44108675589461516	0.0	0.9272538044516314	-0.31185671957046424	0.0	0.8289640107942723	-0.39450361162822356	0.0	0.7327913152328456	-0.4307974539649436	0.0	0.7200535405627307	-0.4692299624216099	0.0	0.7207858602075808	-0.47476201401230506	0.0	0.7238001109530359	-0.4409138104201748	0.0	1.0683138453566448	-0.41989829304792176	0.0	1.0955039986267905	-0.4872119770018497	0.0	1.060848099863321	-0.4651000295568007	0.0	1.0559274556311844	-0.4028318007188469	0.0	0.9654642169359424	-0.44222452635486115	0.0	0.8980354205900245	-0.4859631363670374	0.0	1.0578076257986269	-0.40210362482311024	0.0	0.966676975129303	-0.4381747307744083	0.0	0.9243525678261301	-0.47878612655174596	0.0
52	1.7478991596638656	0.9472239554540766	-0.3016812234216824	0.0	0.942906889463562	-0.3063013387897495	0.0	0.8389073536981703	-0.38138676583578146	0.0	0.7335389024871731	-0.4157983003507733	0.0	0.7034747781841014	-0.45712115058058644	0.0	0.6968025064481201	-0.45310160839887736	0.0	0.7202331005883446	-0.42145836623695804	0.0	0.9438499544653478	-0.3063894918505614	0.0	0.8406065843418027	-0.38334838330917276	0.0	0.7433744481615928	-0.41273298006284254	0.0	0.7296339380301189	-0.4522599576771378	0.0	0.7314649698886171	-0.45668911731483375	0.0	0.73640567898306	-0.42181768154500293	0.0	1.0754000578680158	-0.42710602987767	0.0	1.094411233273975	-0.4969061304045887	0.0	1.0637478392280257	-0.4712736529769073	0.0	1.0633703253159241	-0.4079733760664442	0.0	0.9694081071135708	-0.4368936447296064	0.0	0.8919641070429409	-0.4713228795200926	0.0	1.0662108955161962	-0.4090071904610512	0.0	0.9721154294674913	-0.4340177943072611	0.0	0.9348706418775473	-0.47062142999137985	0.0
53	1.7815126050420167	0.9631508700669725	-0.2963903528738495	0.0	0.9587760620022624	-0.3010895619164952	0.0	0.8506917757568372	-0.37011804161900524	0.0	0.7431013181702588	-0.39745337399166886	0.0	0.712205635685751	-0.43791359754061315	0.0	0.7055909004037838	-0.43187961567184535	0.0	0.7300349895556016	-0.40185669571750626	0.0	0.9601786449312285	-0.3009892221592914	0.0	0.8526827662879367	-0.3724230779369707	0.0	0.7541187428825273	-0.3946085818601954	0.0	0.7385538634294521	-0.4343248514683333	0.0	0.742342481510647	-0.437139303142107	0.0	0.7477543629589329	-0.4020046214234014	0.0	1.0804976314783359	-0.43301332156466954	0.0	1.0927793475982528	-0.5046667282951688	0.0	1.0662009536651025	-0.4767807046501748	0.0	1.0695045213155627	-0.41250210545590027	0.0	0.9746991103818307	-0.4309378049872861	0.0	0.8896378826140171	-0.45488785828458944	0.0	1.0734454074953053	-0.41489442397771487	0.0	0.9792288556886114	-0.43002350949771323	0.0	0.952894280238757	-0.4604591467806988	0.0
54	1.815126050420168	0.9786775947754051	-0.29074126693241376	0.0	0.9746246646686486	-0.295896858017665	0.0	0.8630442017018377	-0.3595431271141538	0.0	0.7532263825573022	-0.3790322939018278	0.0	0.720724614672133	-0.419422344003776	0.0	0.7145904654408587	-0.4112600440238504	0.0	0.7398761848303371	-0.381854229628775	0.0	0.9762659670569419	-0.2956195934520295	0.0	0.8652742914841502	-0.3616302319042515	0.0	0.7650011156664388	-0.3762669436087811	0.0	0.7462688981590965	-0.4151126400134946	0.0	0.7526573957659752	-0.4163454309638806	0.0	0.7571656888205498	-0.3813257692656494	0.0	1.0834721855448548	-0.4372750294466492	0.0	1.0906133695820317	-0.5103114507597353	0.0	1.0677272380752756	-0.48104796417948587	0.0	1.0745625152961744	-0.41601096139709326	0.0	0.9811339175783126	-0.42421281387622056	0.0	0.8917522867284231	-0.4370747808461071	0.0	1.0791484771673279	-0.41943434022448545	0.0	0.9871652302000686	-0.42569120120741777	0.0	0.971933631914885	-0.4482391395462131	0.0
55	1.8487394957983192	0.994017553679333	-0.2852619077834245	0.0	0.9907667363222321	-0.29090860965808235	0.0	0.8760355437015888	-0.34944777900167284	0.0	0.7641302867481751	-0.3602787934467648	0.0	0.7293348229004786	-0.4008881724106628	0.0	0.7240168404699676	-0.39092397942117757	0.0	0.7499053428307018	-0.36117163314943934	0.0	0.9922801036493126	-0.290594862297715	0.0	0.878469244336977	-0.35075420374845667	0.0	0.7762409472950985	-0.35756323763211156	0.0	0.7529879305732268	-0.3937904690263151	0.0	0.7620005276386602	-0.3942418869902952	0.0	0.7651568514555188	-0.35981465495093107	0.0	1.0846947646463072	-0.4400090097675753	0.0	1.0878671768900139	-0.514150784444828	0.0	1.0678595759934	-0.4837479231000832	0.0	1.078835433365042	-0.4185908277953351	0.0	0.9881701079522827	-0.4168705495573331	0.0	0.8982139756544885	-0.41894192932106755	0.0	1.0831664193876465	-0.4226069593658088	0.0	0.9947009561328486	-0.4199933047299849	0.0	0.9830198722561554	-0.4327408045361404	0.0
